<svg id="logo" xmlns="http://www.w3.org/2000/svg" viewBox="0 0 960 560"><style>.logo__razor{fill:transparent;stroke:#fff;stroke-width:10}.logo__okama{fill:#fff;stroke:#fff;stroke-width:1}</style><path class="logo__razor" d="M124.6 62.8l712.5-1.4c7.2 0 13 5.8 13 13v43.9c0 2.3-1.3 4.4-3.3 5.5l-6.8 5.5c-6.4 4.5-4 22.3 4.5 23.8 0 0 8.2 2.4 13.1 2.4l36.4.4c6.6.1 11.8 5.4 11.8 12v225.4c.1 8.5-6.8 15.4-15.3 15.4h-39.9c-5.8 0-11 3.5-13.1 8.8l-.4 1c-3.1 5.5-1.1 9.2 1.3 13.7l9.6 8.5c.8 1.2 1.3 2.7 1.2 4.2l-.5 39.1c-.1 7.3-6.1 13.3-13.4 13.3H124.1c-7 0-12.7-5.7-12.7-12.7l-.6-42.6c0-2.4 1.6-4.5 3.9-5.1l4.1-1c1-.2 1.9-.9 2.4-1.8.4-.7 1.3-1.6 1.3-1.6 4.6-4.5 2.9-16-1.6-20.5l-.5-.5c-.1-.1-.2-.2-.4-.3l-9.3-2.1-37.7-.6c-10.9-.3-19.6-9.2-19.6-20.1V169c0-8.6 7.1-15.6 15.7-15.5l44.5-1c4.5-1.2 7.8-.9 9.1-4.4 0 0 1.9-2.7 2.6-5.4.4-1.4.1-1.8.1-1.8 1.2-3.4 0-8.8-2.8-11.5 0 0-2.6-2.5-5.4-4.4-.1-.1-.3-.2-.4-.3-2-1.2-3.4-1.7-3.4-1.7-.7-.6-1.8-1.7-1.8-2.6l-.7-44.8c0-7.1 6.5-12.8 13.7-12.8z"/><g class="logo__okama"><path d="M167.8 210c17.2 0 30.9 6.5 41.2 19.5 10.3 13 15.4 30.4 15.4 52.1 0 20.6-5.1 36.9-15.2 49.2-10.1 12.2-23.8 18.3-40.8 18.3-13.5 0-25.5-4.3-36-12.9-15.5-12.7-23.2-31.5-23.2-56.5 0-21.3 5.3-38.3 15.9-50.9 10.5-12.5 24.7-18.8 42.7-18.8zm0 9.1c-23.9 0-35.8 21-35.8 62.9 0 38.8 11.8 58.2 35.3 58.2 10.9 0 19.3-5.1 25-15.4 5.7-10.3 8.6-25.3 8.6-45.1 0-22.4-2.8-38-8.3-46.8-5.8-9.2-14.1-13.8-24.8-13.8zm33.8-3.7c10.1 4.9 18.1 13.2 23.9 25 5.9 11.8 8.8 25.4 8.8 40.9 0 22.7-5.8 41.1-17.3 55.1s-26.7 21-45.5 21c-12 0-23.2-4.1-33.7-12.2v-.5c8.8 6.4 19.7 9.6 33 9.6 17.7 0 32.3-6.7 43.7-20 11.4-13.4 17.1-30.4 17.1-51.2 0-15.5-2.6-29-7.8-40.6-5.2-11.6-12.6-20.2-22.1-26v-1.1zM190.5 235l-1.8-1.1c-6.8-3.7-13-5.6-18.6-5.6-18.6 0-27.9 18.3-27.9 54.8 0 26.7 5.8 44.4 17.3 53.1l-1 1.1c-7.1-5-12.1-11.6-15.1-19.8-3-8.2-4.5-19.2-4.5-33.1 0-39.2 10.3-58.8 30.9-58.8 9.4 0 16.3 3.1 20.7 9.4zm54.1-23.6h49.6l-14.7 14v64l5.8-6.7v-56.5l11.9-11.5 1.6 2.3-10.9 10.6v51.8l32.8-39.2c4.7-5.7 7.1-10.7 7.1-15.3 0-2.7-1.3-5.2-4-7.7-2.7-2.4-5.9-4-9.7-4.8v-1.1h55.8v1.1c-12.2 3-25.4 12.9-39.5 29.9l-14.7 17.5 39.1 76 17.8 11.5h-55l13.9-10.4-26.3-52.6-17.3 21.1v30.3l17.3 20.2h-54.4l-2.9-2.9h50.9l-13.5-16.2V304l18.4-22.7-2.3-4.7-21.9 26.1v33l12.8 11.5h-48.5l14.5-12.4V224l-13.7-12.6zm130.5 9.6c-10.5.7-20.9 6.8-31.3 18.3l-18.5 20.6 37.4 75.9 30 20.2h-67.4l-3-2.9h61.3L361 337.7l-38.8-77.9 19.7-22.3c10.3-11.5 20.9-17.8 31.9-18.9l1.3 2.4z"/><path d="M488.7 211.4l-11 12.5 17.4 46.2 4.2-2.3-15.7-41.8 11.2-12.9 2.8 1.2-10.7 12.4 14.8 39.5c.8-.6 1.3-1 1.5-1.2l3.5-3c2.1-1.7 3.5-2.9 4-3.6 1.8 8.1 4.7 15.3 8.5 21.6-2-.1-3.5-.2-4.5-.2-6.7 0-11.6 1.1-14.7 3.2l19.2 52 15.9 12.3h-53.5l14.6-12.3-11.8-30.9c-7.8 7.8-13.7 15.3-17.9 22.4l-2.4-.6c4.2-6.9 10.4-14.7 18.6-23.2l.8-1.1-2-4.7c-8.4 7-15.4 15.1-20.9 24.4l-1.9-3.1c-3.7-5.9-8.4-12.5-14.1-20l-1.1-1.3c-5.4 12.1-8.2 21.9-8.2 29.5 0 4.5.8 8.2 2.3 11.3 1.5 3.1 5.2 8.2 11 15.4.5.6 1.3 1.6 2.3 3h-57.2l-2.1-2.9h53.9l-1.8-2.2c-4.7-5.7-7.7-10-9.2-13.2-1.4-3.1-2.2-6.8-2.2-11.1 0-7.2 2.9-17.9 8.8-32.2l-4.7-4.9c-.9 2.3-2.1 5.6-3.5 10l-3.5 10.8c-1.9 5.8-2.9 10.6-2.9 14.4 0 4 .7 7.2 2 9.9 1.3 2.6 4.2 6.2 8.5 10.7.4.4 1.1 1.1 1.9 2h-53c10.1-5.2 18.1-12.3 24-21.1 5.9-8.8 11.7-22.5 17.5-40.9l.4-1.5c-3.7-3.2-9.1-5.1-16.2-5.8 3.9-5.8 6.9-11.8 9-18.1 1 .9 1.6 1.5 1.8 1.7l4.8 4.5c1.6 1.6 3.6 3.1 5.8 4.8l1.9-4.7-1.3-1.1c-3.5-3.1-6.5-5.6-8.9-7.5l-1-.7 1.7-2.3c3.7 2.5 7.3 5.3 10.8 8.6l14.4-39.6-11.2-12.1h49.3zm-30.9 21.7L441 277.6c5.4 5.5 10 11 13.9 16.3l4.9 6.8c.1.1.4.5 1.1 1.4.6-.6 1-1 1.1-1.2l1.5-1.8c.2-.3.6-.7 1.2-1.4-4.9-7.6-10.7-14.5-17.3-20.7l13.6-35.8-3.2-8.1zm4.8 12.3l-11.7 30.7c.6.7 1 1.1 1.1 1.3l4.3 4.9c2.3 2.5 5.3 6.5 8.9 11.9l1.1 1.6c3-3.8 6.6-7.6 10.8-11.3l-14.5-39.1zm57.5 18.1c1.6 6.4 5.4 15.1 11.7 26.2-1.6-.2-2.4-.3-2.6-.3l-8.6-.7c-3.9-.4-6.7-.5-8.5-.5-.3 0-1 0-2.1.1l17.7 46.9 23.6 20.9H490l-2-2.9h56.3l-19.1-16.8-18.9-49.9c2.4-.6 5.2-1 8.3-1 3.8 0 8.1.3 12.7 1l-1.3-2.3c-4.5-8.3-7.6-15.9-9.1-22.6l3.2 1.9z"/><path d="M697.6 211.4l-14.5 14.7v108.8l13 12.4h-48.7l14.7-12.4v-71.3L628.5 356h-10.2l-.8-2.9h9.2l35.4-98.5v-16.2l-39.4 108.8h-7.4l-29-85.5v56.1c0 7.5.5 12.8 1.5 15.9 1 3.1 3.3 6.5 7 10.3l9.5 12.1h-55.4l-1.9-2.9h52l-3.9-5.8h-47.3l2.2-1.2c7.8-4.3 13-8.7 15.5-13.1s3.8-11.4 3.8-20.9v-87.6l-14-13.1h54.8l-15.4 13.9 30 88.7 3.8-9.2-27.1-78.6 13.9-10.3 2.2 1.8-13.2 9.3 25.2 73.9 27.3-75.5-12.9-13.9h53.7zm-120 25.1v76.1c0 11.7 1.1 19.7 3.3 24.1 2.2 4.4 6.8 7.6 13.8 9.5l-1-1.6c-6.9-4.8-10.4-11.7-10.4-20.8v-70.4l-5.7-16.9zm125.9-16.9l-12 8.6V335l18.4 21h-56.3l-1.5-2.9h51.3l-14.7-16.6V226.4l12.5-8.6 2.3 1.8z"/><path d="M811.7 211.4l-11 12.5 17.4 46.2 4.2-2.3-15.7-41.8 11.2-12.9 2.8 1.2-10.7 12.4 14.8 39.5c.8-.6 1.3-1 1.5-1.2l3.5-3c2.1-1.7 3.5-2.9 4-3.6 1.8 8.1 4.7 15.3 8.5 21.6-2-.1-3.5-.2-4.5-.2-6.7 0-11.6 1.1-14.7 3.2l19.2 52 15.9 12.3h-53.5l14.6-12.3-11.8-30.9c-7.8 7.8-13.7 15.3-17.9 22.4l-2.4-.6c4.2-6.9 10.4-14.7 18.6-23.2l.8-1.1-2-4.7c-8.4 7-15.4 15.1-20.9 24.4l-1.9-3.1c-3.7-5.9-8.4-12.5-14.1-20l-1.1-1.3c-5.4 12.1-8.2 21.9-8.2 29.5 0 4.5.8 8.2 2.3 11.3 1.5 3.1 5.2 8.2 11 15.4.5.6 1.3 1.6 2.3 3h-57.2l-2.1-2.9h53.9l-1.8-2.2c-4.7-5.7-7.7-10-9.2-13.2-1.4-3.1-2.2-6.8-2.2-11.1 0-7.2 2.9-17.9 8.8-32.2l-4.7-4.9c-.9 2.3-2.1 5.6-3.5 10l-3.5 10.8c-1.9 5.8-2.9 10.6-2.9 14.4 0 4 .7 7.2 2 9.9 1.3 2.6 4.2 6.2 8.5 10.7.4.4 1.1 1.1 1.9 2h-53c10.1-5.2 18.1-12.3 24-21.1 5.9-8.8 11.7-22.5 17.5-40.9l.4-1.5c-3.7-3.2-9.1-5.1-16.2-5.8 3.9-5.8 6.9-11.8 9-18.1 1 .9 1.6 1.5 1.8 1.7l4.8 4.5c1.6 1.6 3.6 3.1 5.8 4.8l1.9-4.7-1.3-1.1c-3.5-3.1-6.5-5.6-8.9-7.5l-1-.7 1.7-2.3c3.7 2.5 7.3 5.3 10.8 8.6l14.4-39.6-11.2-12.1h49.3zm-31 21.7l-16.8 44.5c5.4 5.5 10 11 13.9 16.3l4.9 6.8c.1.1.4.5 1.1 1.4.6-.6 1-1 1.1-1.2l1.5-1.8c.2-.3.6-.7 1.2-1.4-4.9-7.6-10.7-14.5-17.3-20.7l13.6-35.8-3.2-8.1zm4.8 12.3l-11.7 30.7c.6.7 1 1.1 1.1 1.3l4.3 4.9c2.3 2.5 5.3 6.5 8.9 11.9l1.1 1.6c3-3.8 6.6-7.6 10.8-11.3l-14.5-39.1zm57.6 18.1c1.6 6.4 5.4 15.1 11.7 26.2-1.6-.2-2.4-.3-2.6-.3l-8.6-.7c-3.9-.4-6.7-.5-8.5-.5-.3 0-1 0-2.1.1l17.7 46.9 23.6 20.9H813l-2-2.9h56.3L848 336.3l-18.9-49.9c2.4-.6 5.2-1 8.3-1 3.8 0 8.1.3 12.7 1l-1.3-2.3c-4.5-8.3-7.6-15.9-9.1-22.6l3.4 2z"/></g></svg>